<?xml version="1.0" standalone="no"?>
<!DOCTYPE svg PUBLIC "-//W3C//DTD SVG 20010904//EN"
 "http://www.w3.org/TR/2001/REC-SVG-20010904/DTD/svg10.dtd">
<svg version="1.0" xmlns="http://www.w3.org/2000/svg"
 width="360.000000pt" height="360.000000pt" viewBox="0 0 360.000000 360.000000"
 preserveAspectRatio="xMidYMid meet">
<metadata>
Created by potrace 1.14, written by Peter Selinger 2001-2017
</metadata>
<g transform="translate(0.000000,360.000000) scale(0.100000,-0.100000)"
fill="#000000" stroke="none">
<path d="M2645 2492 c-237 -61 -429 -237 -508 -467 l-14 -40 -1024 -5 -1024
-5 0 -380 0 -380 204 0 203 0 2 180 1 180 93 0 c51 1 96 -2 100 -5 4 -3 7 -84
7 -180 l0 -175 203 -3 203 -2 -1 174 c-1 96 1 179 3 183 8 12 1034 10 1045 -2
4 -6 17 -30 27 -55 41 -98 131 -210 225 -282 53 -40 166 -93 245 -114 73 -19
236 -25 305 -11 189 40 348 143 450 292 37 54 87 152 95 187 29 127 33 159 30
242 -2 50 -10 119 -19 152 -59 228 -225 411 -444 491 -94 35 -94 35 -222 39
-88 3 -132 -1 -185 -14z m291 -416 c199 -91 236 -353 72 -506 -73 -68 -231
-90 -323 -44 -67 33 -139 111 -159 171 -21 66 -24 99 -13 157 20 112 81 186
191 230 74 30 155 27 232 -8z"/>
</g>
</svg>
